<mxfile host="app.diagrams.net" modified="2020-04-21T10:01:55.303Z" agent="5.0 (Macintosh; Intel Mac OS X 10_15_3) AppleWebKit/537.36 (KHTML, like Gecko) Chrome/80.0.3987.163 Safari/537.36" etag="iSy0V9wrDgUdDHVqege-" version="13.0.0" type="github">
  <diagram id="kCpKwJVJHfybIE9ixX9i" name="Page-1">
    <mxGraphModel dx="1952" dy="686" grid="1" gridSize="10" guides="1" tooltips="1" connect="1" arrows="1" fold="1" page="1" pageScale="1" pageWidth="827" pageHeight="1169" math="0" shadow="0">
      <root>
        <mxCell id="0" />
        <mxCell id="1" parent="0" />
        <mxCell id="cS5qGE4VkqrSiWqYbQCh-15" value="" style="rounded=0;whiteSpace=wrap;html=1;dashed=1;" vertex="1" parent="1">
          <mxGeometry x="292.5" y="348.96" width="118.5" height="45.1" as="geometry" />
        </mxCell>
        <mxCell id="SZwGPWXOhueTDgwkdfKL-52" value="" style="rounded=0;whiteSpace=wrap;html=1;dashed=1;" parent="1" vertex="1">
          <mxGeometry x="-229" y="489.2300000000001" width="217.75" height="119.81" as="geometry" />
        </mxCell>
        <mxCell id="SZwGPWXOhueTDgwkdfKL-69" value="" style="rounded=0;whiteSpace=wrap;html=1;dashed=1;" parent="1" vertex="1">
          <mxGeometry x="713" y="482.5" width="220" height="122.5" as="geometry" />
        </mxCell>
        <mxCell id="SZwGPWXOhueTDgwkdfKL-1" value="" style="rounded=0;whiteSpace=wrap;html=1;fillColor=none;labelPosition=center;verticalLabelPosition=middle;align=center;verticalAlign=middle;dashed=1;" parent="1" vertex="1">
          <mxGeometry x="163.75" y="461.04" width="380.25" height="225.96" as="geometry" />
        </mxCell>
        <mxCell id="SZwGPWXOhueTDgwkdfKL-6" value="某业务系统" style="rounded=0;whiteSpace=wrap;html=1;" parent="1" vertex="1">
          <mxGeometry x="303.75" y="230" width="99" height="30" as="geometry" />
        </mxCell>
        <mxCell id="SZwGPWXOhueTDgwkdfKL-11" value="任务调度服务" style="rounded=0;whiteSpace=wrap;html=1;" parent="1" vertex="1">
          <mxGeometry x="307.75" y="356.51" width="91" height="30" as="geometry" />
        </mxCell>
        <mxCell id="SZwGPWXOhueTDgwkdfKL-14" value="" style="endArrow=classic;html=1;entryX=0.5;entryY=0;entryDx=0;entryDy=0;exitX=0.5;exitY=1;exitDx=0;exitDy=0;" parent="1" source="SZwGPWXOhueTDgwkdfKL-11" target="SZwGPWXOhueTDgwkdfKL-1" edge="1">
          <mxGeometry width="50" height="50" relative="1" as="geometry">
            <mxPoint x="290" y="455" as="sourcePoint" />
            <mxPoint x="340" y="405" as="targetPoint" />
          </mxGeometry>
        </mxCell>
        <mxCell id="eiTHEiBmJHi0xDywlC6Z-11" value="2.通过gRPC发送config任务配置" style="edgeLabel;html=1;align=center;verticalAlign=middle;resizable=0;points=[];" parent="SZwGPWXOhueTDgwkdfKL-14" vertex="1" connectable="0">
          <mxGeometry x="-0.1495" y="-1" relative="1" as="geometry">
            <mxPoint as="offset" />
          </mxGeometry>
        </mxCell>
        <mxCell id="SZwGPWXOhueTDgwkdfKL-15" value="" style="endArrow=classic;html=1;entryX=0.5;entryY=0;entryDx=0;entryDy=0;exitX=0.5;exitY=1;exitDx=0;exitDy=0;" parent="1" source="SZwGPWXOhueTDgwkdfKL-6" target="SZwGPWXOhueTDgwkdfKL-11" edge="1">
          <mxGeometry width="50" height="50" relative="1" as="geometry">
            <mxPoint x="251.75" y="429.51" as="sourcePoint" />
            <mxPoint x="301.75" y="379.51" as="targetPoint" />
          </mxGeometry>
        </mxCell>
        <mxCell id="cS5qGE4VkqrSiWqYbQCh-5" value="1.通过restfull接口发起任务" style="edgeLabel;html=1;align=center;verticalAlign=middle;resizable=0;points=[];" vertex="1" connectable="0" parent="SZwGPWXOhueTDgwkdfKL-15">
          <mxGeometry x="-0.2755" y="-2" relative="1" as="geometry">
            <mxPoint x="2" y="0.4900000000000002" as="offset" />
          </mxGeometry>
        </mxCell>
        <mxCell id="SZwGPWXOhueTDgwkdfKL-17" value="" style="endArrow=classic;html=1;entryX=0;entryY=0.5;entryDx=0;entryDy=0;exitX=1.003;exitY=0.708;exitDx=0;exitDy=0;exitPerimeter=0;" parent="1" source="SZwGPWXOhueTDgwkdfKL-1" target="SZwGPWXOhueTDgwkdfKL-70" edge="1">
          <mxGeometry width="50" height="50" relative="1" as="geometry">
            <mxPoint x="547" y="629" as="sourcePoint" />
            <mxPoint x="595" y="525" as="targetPoint" />
          </mxGeometry>
        </mxCell>
        <mxCell id="SZwGPWXOhueTDgwkdfKL-77" value="5&#39;.通过gRPC传输输出因子" style="text;html=1;align=center;verticalAlign=middle;resizable=0;points=[];labelBackgroundColor=#ffffff;" parent="SZwGPWXOhueTDgwkdfKL-17" vertex="1" connectable="0">
          <mxGeometry x="-0.056" y="3" relative="1" as="geometry">
            <mxPoint as="offset" />
          </mxGeometry>
        </mxCell>
        <mxCell id="SZwGPWXOhueTDgwkdfKL-23" value="计算节点S1" style="rounded=0;whiteSpace=wrap;html=1;fillColor=none;" parent="1" vertex="1">
          <mxGeometry x="193.5" y="494.54" width="90" height="35" as="geometry" />
        </mxCell>
        <mxCell id="SZwGPWXOhueTDgwkdfKL-24" value="" style="endArrow=classic;html=1;exitX=0.25;exitY=0;exitDx=0;exitDy=0;entryX=0.25;entryY=1;entryDx=0;entryDy=0;" parent="1" source="SZwGPWXOhueTDgwkdfKL-26" target="SZwGPWXOhueTDgwkdfKL-23" edge="1">
          <mxGeometry width="50" height="50" relative="1" as="geometry">
            <mxPoint x="257.75" y="589.04" as="sourcePoint" />
            <mxPoint x="457.75" y="574.04" as="targetPoint" />
          </mxGeometry>
        </mxCell>
        <mxCell id="eiTHEiBmJHi0xDywlC6Z-16" value="4.gRPC:&lt;span style=&quot;font-size: 12px&quot;&gt;中间因子&lt;/span&gt;" style="edgeLabel;html=1;align=center;verticalAlign=middle;resizable=0;points=[];" parent="SZwGPWXOhueTDgwkdfKL-24" vertex="1" connectable="0">
          <mxGeometry x="-0.008" relative="1" as="geometry">
            <mxPoint x="24.25" as="offset" />
          </mxGeometry>
        </mxCell>
        <mxCell id="SZwGPWXOhueTDgwkdfKL-26" value="计算节点S2" style="rounded=0;whiteSpace=wrap;html=1;fillColor=none;" parent="1" vertex="1">
          <mxGeometry x="193.5" y="616.04" width="90" height="35" as="geometry" />
        </mxCell>
        <mxCell id="SZwGPWXOhueTDgwkdfKL-29" value="计算节点SB" style="rounded=0;whiteSpace=wrap;html=1;fillColor=none;" parent="1" vertex="1">
          <mxGeometry x="433" y="615.04" width="90" height="35" as="geometry" />
        </mxCell>
        <mxCell id="SZwGPWXOhueTDgwkdfKL-30" value="计算节点SA" style="rounded=0;whiteSpace=wrap;html=1;fillColor=none;" parent="1" vertex="1">
          <mxGeometry x="424.5" y="494.54" width="90" height="35" as="geometry" />
        </mxCell>
        <mxCell id="SZwGPWXOhueTDgwkdfKL-31" value="" style="endArrow=classic;html=1;exitX=0.75;exitY=1;exitDx=0;exitDy=0;entryX=0.75;entryY=0;entryDx=0;entryDy=0;" parent="1" source="SZwGPWXOhueTDgwkdfKL-23" target="SZwGPWXOhueTDgwkdfKL-26" edge="1">
          <mxGeometry width="50" height="50" relative="1" as="geometry">
            <mxPoint x="270.25" y="614.04" as="sourcePoint" />
            <mxPoint x="270.25" y="566.54" as="targetPoint" />
          </mxGeometry>
        </mxCell>
        <mxCell id="SZwGPWXOhueTDgwkdfKL-32" value="" style="endArrow=classic;html=1;exitX=1;exitY=0.5;exitDx=0;exitDy=0;entryX=0;entryY=0.5;entryDx=0;entryDy=0;" parent="1" source="SZwGPWXOhueTDgwkdfKL-23" target="SZwGPWXOhueTDgwkdfKL-30" edge="1">
          <mxGeometry width="50" height="50" relative="1" as="geometry">
            <mxPoint x="315.25" y="566.54" as="sourcePoint" />
            <mxPoint x="315.25" y="614.04" as="targetPoint" />
          </mxGeometry>
        </mxCell>
        <mxCell id="eiTHEiBmJHi0xDywlC6Z-18" value="4&#39;.gRPC:&lt;span style=&quot;font-size: 12px&quot;&gt;中间因子&lt;/span&gt;" style="edgeLabel;html=1;align=center;verticalAlign=middle;resizable=0;points=[];" parent="SZwGPWXOhueTDgwkdfKL-32" vertex="1" connectable="0">
          <mxGeometry y="3" relative="1" as="geometry">
            <mxPoint as="offset" />
          </mxGeometry>
        </mxCell>
        <mxCell id="SZwGPWXOhueTDgwkdfKL-33" value="" style="endArrow=classic;html=1;exitX=1;exitY=0.5;exitDx=0;exitDy=0;entryX=0;entryY=0.5;entryDx=0;entryDy=0;" parent="1" source="SZwGPWXOhueTDgwkdfKL-26" target="SZwGPWXOhueTDgwkdfKL-29" edge="1">
          <mxGeometry width="50" height="50" relative="1" as="geometry">
            <mxPoint x="315.25" y="566.54" as="sourcePoint" />
            <mxPoint x="315.25" y="614.04" as="targetPoint" />
          </mxGeometry>
        </mxCell>
        <mxCell id="eiTHEiBmJHi0xDywlC6Z-20" value="4&#39;&#39;&#39;.gRPC:&lt;span style=&quot;font-size: 12px&quot;&gt;中间因子&lt;/span&gt;" style="edgeLabel;html=1;align=center;verticalAlign=middle;resizable=0;points=[];" parent="SZwGPWXOhueTDgwkdfKL-33" vertex="1" connectable="0">
          <mxGeometry x="-0.1133" y="4" relative="1" as="geometry">
            <mxPoint as="offset" />
          </mxGeometry>
        </mxCell>
        <mxCell id="SZwGPWXOhueTDgwkdfKL-34" value="" style="endArrow=classic;html=1;exitX=1;exitY=0.5;exitDx=0;exitDy=0;entryX=0;entryY=0.75;entryDx=0;entryDy=0;" parent="1" source="SZwGPWXOhueTDgwkdfKL-26" target="SZwGPWXOhueTDgwkdfKL-30" edge="1">
          <mxGeometry width="50" height="50" relative="1" as="geometry">
            <mxPoint x="315.25" y="566.54" as="sourcePoint" />
            <mxPoint x="315.25" y="614.04" as="targetPoint" />
          </mxGeometry>
        </mxCell>
        <mxCell id="SZwGPWXOhueTDgwkdfKL-35" value="" style="endArrow=classic;html=1;exitX=1;exitY=0.5;exitDx=0;exitDy=0;entryX=0;entryY=0.5;entryDx=0;entryDy=0;" parent="1" source="SZwGPWXOhueTDgwkdfKL-23" target="SZwGPWXOhueTDgwkdfKL-29" edge="1">
          <mxGeometry width="50" height="50" relative="1" as="geometry">
            <mxPoint x="327.75" y="631.54" as="sourcePoint" />
            <mxPoint x="407.75" y="557.79" as="targetPoint" />
          </mxGeometry>
        </mxCell>
        <mxCell id="SZwGPWXOhueTDgwkdfKL-81" value="&lt;span style=&quot;font-size: 11px&quot;&gt;4&#39;&#39;.gRPC:&lt;/span&gt;中间因子" style="text;html=1;align=center;verticalAlign=middle;resizable=0;points=[];labelBackgroundColor=#ffffff;" parent="SZwGPWXOhueTDgwkdfKL-35" vertex="1" connectable="0">
          <mxGeometry x="-0.1281" y="-1" relative="1" as="geometry">
            <mxPoint as="offset" />
          </mxGeometry>
        </mxCell>
        <mxCell id="SZwGPWXOhueTDgwkdfKL-36" value="算力提供节点" style="text;html=1;strokeColor=none;fillColor=none;align=center;verticalAlign=middle;whiteSpace=wrap;rounded=0;" parent="1" vertex="1">
          <mxGeometry x="433" y="657.04" width="89" height="20" as="geometry" />
        </mxCell>
        <mxCell id="SZwGPWXOhueTDgwkdfKL-37" value="算力提供节点" style="text;html=1;strokeColor=none;fillColor=none;align=center;verticalAlign=middle;whiteSpace=wrap;rounded=0;" parent="1" vertex="1">
          <mxGeometry x="424.5" y="466.54" width="89" height="20" as="geometry" />
        </mxCell>
        <mxCell id="SZwGPWXOhueTDgwkdfKL-38" value="算力提供节点" style="text;html=1;strokeColor=none;fillColor=none;align=center;verticalAlign=middle;whiteSpace=wrap;rounded=0;" parent="1" vertex="1">
          <mxGeometry x="191.5" y="465.54" width="86.5" height="20" as="geometry" />
        </mxCell>
        <mxCell id="SZwGPWXOhueTDgwkdfKL-41" value="算力提供节点" style="text;html=1;strokeColor=none;fillColor=none;align=center;verticalAlign=middle;whiteSpace=wrap;rounded=0;" parent="1" vertex="1">
          <mxGeometry x="197.75" y="659.04" width="92.25" height="20" as="geometry" />
        </mxCell>
        <mxCell id="SZwGPWXOhueTDgwkdfKL-53" value="数据接入节点DS" style="rounded=0;whiteSpace=wrap;html=1;" parent="1" vertex="1">
          <mxGeometry x="-130" y="502.73" width="102.5" height="35" as="geometry" />
        </mxCell>
        <mxCell id="SZwGPWXOhueTDgwkdfKL-55" value="mysql" style="shape=datastore;whiteSpace=wrap;html=1;" parent="1" vertex="1">
          <mxGeometry x="-216" y="500.23000000000013" width="39.75" height="40" as="geometry" />
        </mxCell>
        <mxCell id="SZwGPWXOhueTDgwkdfKL-56" value="明文" style="endArrow=classic;html=1;exitX=1;exitY=0.5;exitDx=0;exitDy=0;entryX=0;entryY=0.5;entryDx=0;entryDy=0;" parent="1" source="SZwGPWXOhueTDgwkdfKL-55" target="SZwGPWXOhueTDgwkdfKL-53" edge="1">
          <mxGeometry width="50" height="50" relative="1" as="geometry">
            <mxPoint x="-198.5" y="475.2300000000001" as="sourcePoint" />
            <mxPoint x="-148.5" y="425.2300000000001" as="targetPoint" />
          </mxGeometry>
        </mxCell>
        <mxCell id="SZwGPWXOhueTDgwkdfKL-57" value="数据提供节点" style="text;html=1;strokeColor=none;fillColor=none;align=center;verticalAlign=middle;whiteSpace=wrap;rounded=0;" parent="1" vertex="1">
          <mxGeometry x="-230" y="461.04" width="84.75" height="20" as="geometry" />
        </mxCell>
        <mxCell id="SZwGPWXOhueTDgwkdfKL-70" value="数据输出节点" style="rounded=0;whiteSpace=wrap;html=1;" parent="1" vertex="1">
          <mxGeometry x="733" y="497.5" width="90" height="35" as="geometry" />
        </mxCell>
        <mxCell id="SZwGPWXOhueTDgwkdfKL-71" value="存证模块" style="rounded=0;whiteSpace=wrap;html=1;fillColor=none;" parent="1" vertex="1">
          <mxGeometry x="743" y="555" width="70" height="30" as="geometry" />
        </mxCell>
        <mxCell id="SZwGPWXOhueTDgwkdfKL-72" value="mysql" style="shape=datastore;whiteSpace=wrap;html=1;" parent="1" vertex="1">
          <mxGeometry x="873" y="493.75" width="42" height="42.5" as="geometry" />
        </mxCell>
        <mxCell id="SZwGPWXOhueTDgwkdfKL-73" value="" style="endArrow=classic;html=1;exitX=1;exitY=0.5;exitDx=0;exitDy=0;" parent="1" source="SZwGPWXOhueTDgwkdfKL-70" target="SZwGPWXOhueTDgwkdfKL-72" edge="1">
          <mxGeometry width="50" height="50" relative="1" as="geometry">
            <mxPoint x="785.5000000000001" y="542.5" as="sourcePoint" />
            <mxPoint x="835.5000000000001" y="492.5" as="targetPoint" />
          </mxGeometry>
        </mxCell>
        <mxCell id="SZwGPWXOhueTDgwkdfKL-76" value="明文" style="text;html=1;align=center;verticalAlign=middle;resizable=0;points=[];labelBackgroundColor=#ffffff;" parent="SZwGPWXOhueTDgwkdfKL-73" vertex="1" connectable="0">
          <mxGeometry x="-0.0569" relative="1" as="geometry">
            <mxPoint as="offset" />
          </mxGeometry>
        </mxCell>
        <mxCell id="SZwGPWXOhueTDgwkdfKL-74" value="结果接收节点" style="text;html=1;strokeColor=none;fillColor=none;align=center;verticalAlign=middle;whiteSpace=wrap;rounded=0;" parent="1" vertex="1">
          <mxGeometry x="723.0000000000001" y="455" width="94.5" height="20" as="geometry" />
        </mxCell>
        <mxCell id="WDAiJp-4TPZIHqZEOYhD-1" value="Hyperledger Fabric联盟链（存证记录）" style="rounded=0;whiteSpace=wrap;html=1;dashed=1;" parent="1" vertex="1">
          <mxGeometry x="20" y="800" width="662" height="40" as="geometry" />
        </mxCell>
        <mxCell id="WDAiJp-4TPZIHqZEOYhD-5" value="" style="endArrow=classic;html=1;exitX=0.5;exitY=1;exitDx=0;exitDy=0;entryX=0.819;entryY=0;entryDx=0;entryDy=0;entryPerimeter=0;" parent="1" source="SZwGPWXOhueTDgwkdfKL-71" target="WDAiJp-4TPZIHqZEOYhD-1" edge="1">
          <mxGeometry width="50" height="50" relative="1" as="geometry">
            <mxPoint x="440" y="780" as="sourcePoint" />
            <mxPoint x="490" y="730" as="targetPoint" />
          </mxGeometry>
        </mxCell>
        <mxCell id="eiTHEiBmJHi0xDywlC6Z-15" value="5&#39;&#39;.restfull存证" style="edgeLabel;html=1;align=center;verticalAlign=middle;resizable=0;points=[];" parent="WDAiJp-4TPZIHqZEOYhD-5" vertex="1" connectable="0">
          <mxGeometry x="-0.1473" y="1" relative="1" as="geometry">
            <mxPoint as="offset" />
          </mxGeometry>
        </mxCell>
        <mxCell id="WDAiJp-4TPZIHqZEOYhD-6" value="" style="endArrow=classic;html=1;entryX=0.179;entryY=0.015;entryDx=0;entryDy=0;entryPerimeter=0;exitX=0.5;exitY=1;exitDx=0;exitDy=0;" parent="1" source="cS5qGE4VkqrSiWqYbQCh-1" target="WDAiJp-4TPZIHqZEOYhD-1" edge="1">
          <mxGeometry width="50" height="50" relative="1" as="geometry">
            <mxPoint x="310" y="930" as="sourcePoint" />
            <mxPoint x="146" y="867.69" as="targetPoint" />
          </mxGeometry>
        </mxCell>
        <mxCell id="eiTHEiBmJHi0xDywlC6Z-12" value="3&#39;&#39;.通过restfull调用存证接口" style="edgeLabel;html=1;align=center;verticalAlign=middle;resizable=0;points=[];" parent="WDAiJp-4TPZIHqZEOYhD-6" vertex="1" connectable="0">
          <mxGeometry x="0.0363" relative="1" as="geometry">
            <mxPoint as="offset" />
          </mxGeometry>
        </mxCell>
        <mxCell id="01yYLrN6eulc1W3Ah3Q7-1" value="计算引擎集群" style="text;html=1;strokeColor=none;fillColor=none;align=center;verticalAlign=middle;whiteSpace=wrap;rounded=0;" parent="1" vertex="1">
          <mxGeometry x="169.75" y="441.04" width="79.5" height="20" as="geometry" />
        </mxCell>
        <mxCell id="HyGqtzqtbX2Nl6VqGr-e-2" value="" style="endArrow=classic;html=1;entryX=0;entryY=0.5;entryDx=0;entryDy=0;exitX=1;exitY=0.25;exitDx=0;exitDy=0;" parent="1" target="SZwGPWXOhueTDgwkdfKL-70" edge="1" source="SZwGPWXOhueTDgwkdfKL-1">
          <mxGeometry width="50" height="50" relative="1" as="geometry">
            <mxPoint x="600" y="500" as="sourcePoint" />
            <mxPoint x="612.5" y="535" as="targetPoint" />
          </mxGeometry>
        </mxCell>
        <mxCell id="HyGqtzqtbX2Nl6VqGr-e-3" value="5.通过gRPC传输输出因子" style="text;html=1;align=center;verticalAlign=middle;resizable=0;points=[];labelBackgroundColor=#ffffff;" parent="HyGqtzqtbX2Nl6VqGr-e-2" vertex="1" connectable="0">
          <mxGeometry x="-0.056" y="3" relative="1" as="geometry">
            <mxPoint as="offset" />
          </mxGeometry>
        </mxCell>
        <mxCell id="cS5qGE4VkqrSiWqYbQCh-1" value="存证模块" style="rounded=0;whiteSpace=wrap;html=1;fillColor=none;" vertex="1" parent="1">
          <mxGeometry x="-119" y="564.04" width="79" height="30" as="geometry" />
        </mxCell>
        <mxCell id="cS5qGE4VkqrSiWqYbQCh-2" value="" style="endArrow=classic;html=1;exitX=0.5;exitY=0;exitDx=0;exitDy=0;entryX=0.5;entryY=1;entryDx=0;entryDy=0;" edge="1" parent="1" source="cS5qGE4VkqrSiWqYbQCh-1" target="SZwGPWXOhueTDgwkdfKL-53">
          <mxGeometry width="50" height="50" relative="1" as="geometry">
            <mxPoint x="19" y="441.04" as="sourcePoint" />
            <mxPoint x="69" y="391.04" as="targetPoint" />
          </mxGeometry>
        </mxCell>
        <mxCell id="cS5qGE4VkqrSiWqYbQCh-3" value="" style="endArrow=classic;html=1;entryX=0.5;entryY=1;entryDx=0;entryDy=0;exitX=0.5;exitY=0;exitDx=0;exitDy=0;" edge="1" parent="1" source="SZwGPWXOhueTDgwkdfKL-71" target="SZwGPWXOhueTDgwkdfKL-70">
          <mxGeometry width="50" height="50" relative="1" as="geometry">
            <mxPoint x="443" y="675" as="sourcePoint" />
            <mxPoint x="493" y="625" as="targetPoint" />
          </mxGeometry>
        </mxCell>
        <mxCell id="cS5qGE4VkqrSiWqYbQCh-4" value="3.通过gRPC传输输入因子" style="endArrow=classic;html=1;exitX=1;exitY=0.5;exitDx=0;exitDy=0;entryX=0;entryY=0.25;entryDx=0;entryDy=0;" edge="1" parent="1" source="SZwGPWXOhueTDgwkdfKL-53" target="SZwGPWXOhueTDgwkdfKL-1">
          <mxGeometry x="0.09" y="1" width="50" height="50" relative="1" as="geometry">
            <mxPoint x="440" y="670" as="sourcePoint" />
            <mxPoint x="490" y="620" as="targetPoint" />
            <mxPoint as="offset" />
          </mxGeometry>
        </mxCell>
        <mxCell id="cS5qGE4VkqrSiWqYbQCh-6" value="" style="endArrow=classic;html=1;entryX=0;entryY=0.5;entryDx=0;entryDy=0;exitX=0.5;exitY=0;exitDx=0;exitDy=0;" edge="1" parent="1" source="SZwGPWXOhueTDgwkdfKL-53" target="SZwGPWXOhueTDgwkdfKL-11">
          <mxGeometry width="50" height="50" relative="1" as="geometry">
            <mxPoint x="-30" y="520" as="sourcePoint" />
            <mxPoint x="280" y="530" as="targetPoint" />
          </mxGeometry>
        </mxCell>
        <mxCell id="cS5qGE4VkqrSiWqYbQCh-9" value="2&#39;.通过gRPC获取任务配置" style="edgeLabel;html=1;align=center;verticalAlign=middle;resizable=0;points=[];" vertex="1" connectable="0" parent="cS5qGE4VkqrSiWqYbQCh-6">
          <mxGeometry x="-0.3005" y="3" relative="1" as="geometry">
            <mxPoint as="offset" />
          </mxGeometry>
        </mxCell>
        <mxCell id="cS5qGE4VkqrSiWqYbQCh-10" value="" style="endArrow=classic;html=1;exitX=0.5;exitY=0;exitDx=0;exitDy=0;entryX=1;entryY=0.5;entryDx=0;entryDy=0;" edge="1" parent="1" source="SZwGPWXOhueTDgwkdfKL-70" target="SZwGPWXOhueTDgwkdfKL-11">
          <mxGeometry width="50" height="50" relative="1" as="geometry">
            <mxPoint x="410" y="580" as="sourcePoint" />
            <mxPoint x="404" y="384" as="targetPoint" />
          </mxGeometry>
        </mxCell>
        <mxCell id="cS5qGE4VkqrSiWqYbQCh-11" value="2&#39;&#39;.通过gRPC获取任务配置" style="edgeLabel;html=1;align=center;verticalAlign=middle;resizable=0;points=[];" vertex="1" connectable="0" parent="cS5qGE4VkqrSiWqYbQCh-10">
          <mxGeometry x="-0.0166" y="-3" relative="1" as="geometry">
            <mxPoint y="1" as="offset" />
          </mxGeometry>
        </mxCell>
        <mxCell id="cS5qGE4VkqrSiWqYbQCh-12" value="&lt;span style=&quot;font-size: 12px&quot;&gt;6.通过restfull查询运算结果&lt;/span&gt;" style="endArrow=classic;html=1;entryX=0.5;entryY=0;entryDx=0;entryDy=0;exitX=1;exitY=0.5;exitDx=0;exitDy=0;" edge="1" parent="1" source="SZwGPWXOhueTDgwkdfKL-6" target="SZwGPWXOhueTDgwkdfKL-72">
          <mxGeometry width="50" height="50" relative="1" as="geometry">
            <mxPoint x="370" y="610" as="sourcePoint" />
            <mxPoint x="420" y="560" as="targetPoint" />
          </mxGeometry>
        </mxCell>
        <mxCell id="cS5qGE4VkqrSiWqYbQCh-18" value="集群管理节点" style="text;html=1;strokeColor=none;fillColor=none;align=center;verticalAlign=middle;whiteSpace=wrap;rounded=0;" vertex="1" parent="1">
          <mxGeometry x="285" y="328.96" width="85" height="20" as="geometry" />
        </mxCell>
        <mxCell id="cS5qGE4VkqrSiWqYbQCh-20" value="3&#39;.通过gRPC传输输入因子" style="endArrow=classic;html=1;exitX=1;exitY=0.5;exitDx=0;exitDy=0;entryX=0;entryY=0.5;entryDx=0;entryDy=0;" edge="1" parent="1" source="SZwGPWXOhueTDgwkdfKL-53" target="SZwGPWXOhueTDgwkdfKL-1">
          <mxGeometry x="0.09" y="1" width="50" height="50" relative="1" as="geometry">
            <mxPoint x="-17.5" y="530.23" as="sourcePoint" />
            <mxPoint x="179.75" y="529.04" as="targetPoint" />
            <mxPoint as="offset" />
          </mxGeometry>
        </mxCell>
        <mxCell id="cS5qGE4VkqrSiWqYbQCh-21" value="" style="rounded=0;whiteSpace=wrap;html=1;fillColor=none;labelPosition=center;verticalLabelPosition=middle;align=center;verticalAlign=middle;dashed=1;" vertex="1" parent="1">
          <mxGeometry x="184" y="486.25" width="110" height="50" as="geometry" />
        </mxCell>
        <mxCell id="cS5qGE4VkqrSiWqYbQCh-22" value="" style="rounded=0;whiteSpace=wrap;html=1;fillColor=none;labelPosition=center;verticalLabelPosition=middle;align=center;verticalAlign=middle;dashed=1;" vertex="1" parent="1">
          <mxGeometry x="183.5" y="607.54" width="110" height="50" as="geometry" />
        </mxCell>
        <mxCell id="cS5qGE4VkqrSiWqYbQCh-23" value="" style="rounded=0;whiteSpace=wrap;html=1;fillColor=none;labelPosition=center;verticalLabelPosition=middle;align=center;verticalAlign=middle;dashed=1;" vertex="1" parent="1">
          <mxGeometry x="422" y="607.04" width="110" height="50" as="geometry" />
        </mxCell>
        <mxCell id="cS5qGE4VkqrSiWqYbQCh-24" value="" style="rounded=0;whiteSpace=wrap;html=1;fillColor=none;labelPosition=center;verticalLabelPosition=middle;align=center;verticalAlign=middle;dashed=1;" vertex="1" parent="1">
          <mxGeometry x="413" y="485.53999999999996" width="110" height="50" as="geometry" />
        </mxCell>
      </root>
    </mxGraphModel>
  </diagram>
</mxfile>
